<svg xmlns="http://www.w3.org/2000/svg" width="24" height="24" viewBox="0 0 24 24">
    <g fill="none" fill-rule="evenodd">
        <g>
            <g>
                <g>
                    <g fill="#2D3338">
                        <path d="M14.382 11H6.764L5.127 5h12.255l-3 6zm4.7-7.052C18.717 3.354 18.08 3 17.383 3h-12.8L3.965.737C3.845.302 3.45 0 3 0H1C.447 0 0 .448 0 1s.447 1 1 1h1.236l2.799 10.263c.119.435.514.737.965.737h9c.379 0 .725-.214.895-.553l3.276-6.553c.313-.625.279-1.352-.088-1.946zM5.5 15c-.828 0-1.5.671-1.5 1.5S4.672 18 5.5 18 7 17.329 7 16.5 6.328 15 5.5 15zm8.5 1.5c0-.829.672-1.5 1.5-1.5s1.5.671 1.5 1.5-.672 1.5-1.5 1.5-1.5-.671-1.5-1.5z" transform="translate(-321 -17) translate(321 17) translate(2 3)"/>
                    </g>
                </g>
            </g>
        </g>
    </g>
</svg>
